<svg width="126" height="47" viewBox="0 0 126 47" fill="none" xmlns="http://www.w3.org/2000/svg">
<path d="M9.264 35.76V5.76H0V0H24.96V5.76H15.84V35.76H9.264Z" fill="white"/>
<path d="M21.2362 35.76V9.648H27.1403V15.456L26.6603 14.592C27.2683 12.64 28.2122 11.28 29.4923 10.512C30.8043 9.744 32.3722 9.36 34.1963 9.36H35.7323V14.928H33.4762C31.6842 14.928 30.2443 15.488 29.1562 16.608C28.0682 17.696 27.5243 19.232 27.5243 21.216V35.76H21.2362Z" fill="white"/>
<path d="M42.7894 36.336C40.9654 36.336 39.3814 36.032 38.0374 35.424C36.6934 34.816 35.6534 33.952 34.9174 32.832C34.1814 31.68 33.8134 30.352 33.8134 28.848C33.8134 27.408 34.1334 26.128 34.7734 25.008C35.4134 23.856 36.4054 22.896 37.7494 22.128C39.0934 21.36 40.7894 20.816 42.8374 20.496L51.3814 19.104V23.904L44.0374 25.152C42.7894 25.376 41.8614 25.776 41.2534 26.352C40.6454 26.928 40.3414 27.68 40.3414 28.608C40.3414 29.504 40.6774 30.224 41.3494 30.768C42.0534 31.28 42.9174 31.536 43.9414 31.536C45.2534 31.536 46.4054 31.264 47.3974 30.72C48.4214 30.144 49.2054 29.36 49.7494 28.368C50.3254 27.376 50.6134 26.288 50.6134 25.104V18.384C50.6134 17.264 50.1654 16.336 49.2694 15.6C48.4054 14.832 47.2534 14.448 45.8134 14.448C44.4694 14.448 43.2694 14.816 42.2134 15.552C41.1894 16.256 40.4374 17.2 39.9574 18.384L34.8214 15.888C35.3334 14.512 36.1334 13.328 37.2214 12.336C38.3414 11.312 39.6534 10.512 41.1574 9.936C42.6614 9.36 44.2934 9.072 46.0534 9.072C48.1974 9.072 50.0854 9.472 51.7174 10.272C53.3494 11.04 54.6134 12.128 55.5094 13.536C56.4374 14.912 56.9014 16.528 56.9014 18.384V35.76H50.9494V31.296L52.2934 31.2C51.6214 32.32 50.8214 33.264 49.8934 34.032C48.9654 34.768 47.9094 35.344 46.7254 35.76C45.5414 36.144 44.2294 36.336 42.7894 36.336Z" fill="white"/>
<path d="M65.7964 35.76L60.6604 22.704L55.5244 9.648H62.3884L69.8284 30.192H67.2844L74.7724 9.648H81.6364L71.3644 35.76H65.7964Z" fill="white"/>
<path d="M90.7279 36.336C87.9439 36.336 85.5119 35.68 83.4319 34.368C81.3839 33.024 79.9759 31.216 79.2079 28.944L83.9119 26.688C84.5839 28.16 85.5119 29.312 86.6959 30.144C87.9119 30.976 89.2559 31.392 90.7279 31.392C91.8799 31.392 92.7919 31.136 93.4639 30.624C94.1359 30.112 94.4719 29.44 94.4719 28.608C94.4719 28.096 94.3279 27.68 94.0399 27.36C93.7839 27.008 93.4159 26.72 92.9359 26.496C92.4879 26.24 91.9919 26.032 91.4479 25.872L87.1759 24.672C84.9679 24.032 83.2879 23.056 82.1359 21.744C81.0159 20.432 80.4559 18.88 80.4559 17.088C80.4559 15.488 80.8559 14.096 81.6559 12.912C82.4879 11.696 83.6239 10.752 85.0639 10.08C86.5359 9.408 88.2159 9.072 90.1039 9.072C92.5679 9.072 94.7439 9.664 96.6319 10.848C98.5199 12.032 99.8639 13.696 100.664 15.84L95.8639 18.096C95.4159 16.912 94.6639 15.968 93.6079 15.264C92.5519 14.56 91.3679 14.208 90.0559 14.208C88.9999 14.208 88.1679 14.448 87.5599 14.928C86.9519 15.408 86.6479 16.032 86.6479 16.8C86.6479 17.28 86.7759 17.696 87.0319 18.048C87.2879 18.4 87.6399 18.688 88.0879 18.912C88.5679 19.136 89.1119 19.344 89.7199 19.536L93.8959 20.784C96.0399 21.424 97.6879 22.384 98.8399 23.664C100.024 24.944 100.616 26.512 100.616 28.368C100.616 29.936 100.2 31.328 99.3679 32.544C98.5359 33.728 97.3839 34.656 95.9119 35.328C94.4399 36 92.7119 36.336 90.7279 36.336Z" fill="white"/>
<path d="M103.827 46.368C103.123 46.368 102.435 46.304 101.763 46.176C101.091 46.08 100.483 45.904 99.9394 45.648V40.368C100.355 40.464 100.851 40.56 101.427 40.656C102.035 40.752 102.595 40.8 103.107 40.8C104.547 40.8 105.587 40.464 106.227 39.792C106.899 39.12 107.491 38.24 108.003 37.152L109.731 33.12L109.635 38.4L98.2594 9.648H105.027L112.995 30.864H110.595L118.515 9.648H125.331L113.955 38.4C113.283 40.096 112.467 41.536 111.507 42.72C110.547 43.904 109.427 44.8 108.147 45.408C106.899 46.048 105.459 46.368 103.827 46.368Z" fill="white"/>
<path d="M68.6045 17L69.5852 9.5556H67.6237L68.6045 17Z" fill="white"/>
<path d="M72.6782 6.62562L67.6386 9.574L69.5541 9.57401L72.6782 6.62562Z" fill="white"/>
</svg>
