<svg width="132" height="49" viewBox="0 0 132 49" fill="none" xmlns="http://www.w3.org/2000/svg">
<path d="M9.75692 37.7451V6.14888H0V0.0823975H26.2881V6.14888H16.6828V37.7451H9.75692Z" fill="#07BCF0"/>
<path d="M22.3662 37.7451V10.2437H28.5843V16.3608L28.0788 15.4508C28.7191 13.3949 29.7134 11.9626 31.0615 11.1537C32.4433 10.3449 34.0947 9.94043 36.0158 9.94043H37.6335V15.8047H35.2575C33.3701 15.8047 31.8535 16.3945 30.7076 17.5741C29.5617 18.72 28.9888 20.3377 28.9888 22.4273V37.7451H22.3662Z" fill="#07BCF0"/>
<path d="M45.0661 38.3518C43.1451 38.3518 41.4768 38.0316 40.0613 37.3912C38.6458 36.7509 37.5504 35.8409 36.7753 34.6613C36.0001 33.448 35.6125 32.0494 35.6125 30.4653C35.6125 28.9487 35.9495 27.6006 36.6236 26.421C37.2976 25.2077 38.3424 24.1966 39.7579 23.3878C41.1735 22.5789 42.9597 22.006 45.1167 21.669L54.1153 20.2029V25.2583L46.3805 26.5727C45.0661 26.8086 44.0887 27.2299 43.4484 27.8365C42.808 28.4432 42.4879 29.2352 42.4879 30.2126C42.4879 31.1562 42.8417 31.9146 43.5495 32.4875C44.291 33.0267 45.2009 33.2964 46.2794 33.2964C47.6612 33.2964 48.8745 33.0099 49.9193 32.437C50.9978 31.8303 51.8235 31.0046 52.3964 29.9598C53.0031 28.915 53.3064 27.7691 53.3064 26.5221V19.4446C53.3064 18.265 52.8346 17.2876 51.8909 16.5124C50.9809 15.7036 49.7676 15.2991 48.251 15.2991C46.8355 15.2991 45.5717 15.6867 44.4595 16.4619C43.381 17.2034 42.589 18.1976 42.0834 19.4446L36.6742 16.8158C37.2134 15.3666 38.056 14.1196 39.2019 13.0748C40.3814 11.9963 41.7633 11.1537 43.3473 10.5471C44.9313 9.94042 46.6501 9.6371 48.5038 9.6371C50.7619 9.6371 52.7503 10.0584 54.4692 10.901C56.188 11.7098 57.5192 12.8557 58.4629 14.3386C59.4403 15.7878 59.929 17.4898 59.929 19.4446V37.7451H53.6603V33.0436L55.0758 32.9425C54.368 34.1221 53.5255 35.1163 52.5481 35.9252C51.5707 36.7003 50.4585 37.307 49.2115 37.7451C47.9645 38.1495 46.5827 38.3518 45.0661 38.3518Z" fill="#07BCF0"/>
<path d="M69.2973 37.7451L63.888 23.9944L58.4787 10.2437H65.7079L73.5438 31.8809H70.8644L78.7509 10.2437H85.9801L75.1615 37.7451H69.2973Z" fill="#07BCF0"/>
<path d="M95.5553 38.3518C92.6232 38.3518 90.0618 37.6609 87.8711 36.2791C85.7141 34.8635 84.2312 32.9593 83.4224 30.5665L88.3767 28.1904C89.0844 29.7407 90.0618 30.954 91.3088 31.8303C92.5895 32.7066 94.005 33.1447 95.5553 33.1447C96.7686 33.1447 97.7291 32.8751 98.4369 32.3358C99.1447 31.7966 99.4985 31.0888 99.4985 30.2126C99.4985 29.6733 99.3469 29.2352 99.0435 28.8982C98.7739 28.5274 98.3863 28.2241 97.8808 27.9882C97.409 27.7186 96.8866 27.4995 96.3136 27.331L91.8143 26.0671C89.4888 25.3931 87.7195 24.3652 86.5062 22.9834C85.3266 21.6015 84.7368 19.967 84.7368 18.0796C84.7368 16.3945 85.1581 14.9284 86.0006 13.6814C86.8769 12.4007 88.0733 11.4065 89.59 10.6987C91.1403 9.99098 92.9097 9.6371 94.8981 9.6371C97.4932 9.6371 99.785 10.2606 101.773 11.5076C103.762 12.7546 105.177 14.5071 106.02 16.7652L100.965 19.1413C100.493 17.8943 99.7008 16.9 98.5886 16.1586C97.4764 15.4171 96.2294 15.0464 94.8476 15.0464C93.7354 15.0464 92.8591 15.2991 92.2188 15.8047C91.5784 16.3102 91.2582 16.9674 91.2582 17.7763C91.2582 18.2818 91.393 18.72 91.6627 19.0907C91.9323 19.4614 92.303 19.7648 92.7749 20.0007C93.2804 20.2366 93.8533 20.4557 94.4937 20.6579L98.8919 21.9723C101.15 22.6463 102.886 23.6574 104.099 25.0055C105.346 26.3536 105.969 28.0051 105.969 29.9598C105.969 31.6112 105.531 33.0773 104.655 34.358C103.779 35.605 102.565 36.5824 101.015 37.2901C99.4648 37.9979 97.6449 38.3518 95.5553 38.3518Z" fill="#07BCF0"/>
<path d="M109.352 48.9175C108.61 48.9175 107.886 48.8501 107.178 48.7153C106.47 48.6142 105.83 48.4289 105.257 48.1592V42.5983C105.695 42.6994 106.217 42.8005 106.824 42.9016C107.464 43.0027 108.054 43.0533 108.594 43.0533C110.11 43.0533 111.205 42.6994 111.88 41.9917C112.587 41.2839 113.211 40.3571 113.75 39.2112L115.57 34.9646L115.469 40.5256L103.488 10.2437H110.616L119.008 32.5886H116.48L124.821 10.2437H132L120.019 40.5256C119.311 42.3118 118.452 43.8284 117.44 45.0754C116.429 46.3224 115.25 47.2661 113.902 47.9065C112.587 48.5805 111.071 48.9175 109.352 48.9175Z" fill="#07BCF0"/>
<path d="M72.2548 17.987L73.2877 10.1464H71.2218L72.2548 17.987Z" fill="#07BCF0"/>
<path d="M76.5453 7.06055L71.2375 10.1658L73.255 10.1658L76.5453 7.06055Z" fill="#07BCF0"/>
</svg>
