<svg xmlns="http://www.w3.org/2000/svg" width="1em" height="1em" viewBox="0 0 48 48"><defs><mask id="ipSTourBus0"><g fill="none"><path fill="#fff" stroke="#fff" stroke-linejoin="round" stroke-width="4" d="M9 23h30v11a2 2 0 0 1-2 2H11a2 2 0 0 1-2-2z"/><path stroke="#fff" stroke-linejoin="round" stroke-width="4" d="M9 8a2 2 0 0 1 2-2h26a2 2 0 0 1 2 2v15H9z"/><path fill="#fff" stroke="#fff" stroke-linecap="round" stroke-linejoin="round" stroke-width="4" d="M15 42a3 3 0 0 1-3-3v-3h6v3a3 3 0 0 1-3 3m18 0a3 3 0 0 1-3-3v-3h6v3a3 3 0 0 1-3 3"/><path stroke="#fff" stroke-linecap="round" stroke-width="4" d="M6 12v4m36-4v4"/><circle cx="15" cy="30" r="2" fill="#000"/><circle cx="33" cy="30" r="2" fill="#000"/><path stroke="#fff" stroke-linecap="round" stroke-width="4" d="m31 6l-9 10m16-9l-5 6"/></g></mask></defs><path fill="#f0faff" d="M0 0h48v48H0z" mask="url(#ipSTourBus0)"/></svg>