<svg width="132" height="49" viewBox="0 0 132 49" fill="none" xmlns="http://www.w3.org/2000/svg">
<path d="M9.75692 37.7452V6.149H0V0.0825195H26.2881V6.149H16.6828V37.7452H9.75692Z" fill="#07BCF0"/>
<path d="M22.3662 37.7452V10.2439H28.5843V16.3609L28.0788 15.4509C28.7191 13.3951 29.7134 11.9627 31.0615 11.1538C32.4433 10.345 34.0947 9.94055 36.0158 9.94055H37.6335V15.8048H35.2575C33.3701 15.8048 31.8535 16.3946 30.7076 17.5742C29.5617 18.7201 28.9888 20.3378 28.9888 22.4274V37.7452H22.3662Z" fill="#07BCF0"/>
<path d="M45.0661 38.3519C43.1451 38.3519 41.4768 38.0317 40.0613 37.3914C38.6458 36.751 37.5504 35.841 36.7753 34.6614C36.0001 33.4482 35.6125 32.0495 35.6125 30.4655C35.6125 28.9488 35.9495 27.6007 36.6236 26.4211C37.2976 25.2079 38.3424 24.1968 39.7579 23.3879C41.1735 22.579 42.9597 22.0061 45.1167 21.6691L54.1153 20.203V25.2584L46.3805 26.5728C45.0661 26.8087 44.0887 27.23 43.4484 27.8367C42.808 28.4433 42.4879 29.2353 42.4879 30.2127C42.4879 31.1564 42.8417 31.9147 43.5495 32.4876C44.291 33.0269 45.2009 33.2965 46.2794 33.2965C47.6612 33.2965 48.8745 33.01 49.9193 32.4371C50.9978 31.8304 51.8235 31.0047 52.3964 29.9599C53.0031 28.9151 53.3064 27.7693 53.3064 26.5223V19.4447C53.3064 18.2651 52.8346 17.2877 51.8909 16.5126C50.9809 15.7037 49.7676 15.2993 48.251 15.2993C46.8355 15.2993 45.5717 15.6869 44.4595 16.462C43.381 17.2035 42.589 18.1977 42.0834 19.4447L36.6742 16.8159C37.2134 15.3667 38.056 14.1197 39.2019 13.0749C40.3814 11.9964 41.7633 11.1538 43.3473 10.5472C44.9313 9.94055 46.6501 9.63722 48.5038 9.63722C50.7619 9.63722 52.7503 10.0585 54.4692 10.9011C56.188 11.7099 57.5192 12.8558 58.4629 14.3387C59.4403 15.788 59.929 17.4899 59.929 19.4447V37.7452H53.6603V33.0437L55.0758 32.9426C54.368 34.1222 53.5255 35.1164 52.5481 35.9253C51.5707 36.7005 50.4585 37.3071 49.2115 37.7452C47.9645 38.1497 46.5827 38.3519 45.0661 38.3519Z" fill="#07BCF0"/>
<path d="M69.2973 37.7452L63.888 23.9946L58.4787 10.2439H65.7079L73.5438 31.881H70.8644L78.7509 10.2439H85.9801L75.1615 37.7452H69.2973Z" fill="#07BCF0"/>
<path d="M95.5553 38.3519C92.6232 38.3519 90.0618 37.661 87.8711 36.2792C85.7141 34.8637 84.2312 32.9595 83.4224 30.5666L88.3767 28.1905C89.0844 29.7409 90.0618 30.9542 91.3088 31.8304C92.5895 32.7067 94.005 33.1448 95.5553 33.1448C96.7686 33.1448 97.7291 32.8752 98.4369 32.336C99.1447 31.7967 99.4985 31.089 99.4985 30.2127C99.4985 29.6735 99.3469 29.2353 99.0435 28.8983C98.7739 28.5276 98.3863 28.2242 97.8808 27.9883C97.409 27.7187 96.8866 27.4996 96.3136 27.3311L91.8143 26.0673C89.4888 25.3932 87.7195 24.3653 86.5062 22.9835C85.3266 21.6017 84.7368 19.9671 84.7368 18.0797C84.7368 16.3946 85.1581 14.9285 86.0006 13.6815C86.8769 12.4008 88.0733 11.4066 89.59 10.6989C91.1403 9.9911 92.9097 9.63722 94.8981 9.63722C97.4932 9.63722 99.785 10.2607 101.773 11.5077C103.762 12.7547 105.177 14.5073 106.02 16.7653L100.965 19.1414C100.493 17.8944 99.7008 16.9001 98.5886 16.1587C97.4764 15.4172 96.2294 15.0465 94.8476 15.0465C93.7354 15.0465 92.8591 15.2993 92.2188 15.8048C91.5784 16.3104 91.2582 16.9676 91.2582 17.7764C91.2582 18.282 91.393 18.7201 91.6627 19.0908C91.9323 19.4615 92.303 19.7649 92.7749 20.0008C93.2804 20.2367 93.8533 20.4558 94.4937 20.658L98.8919 21.9724C101.15 22.6465 102.886 23.6575 104.099 25.0056C105.346 26.3537 105.969 28.0052 105.969 29.9599C105.969 31.6114 105.531 33.0774 104.655 34.3581C103.779 35.6051 102.565 36.5825 101.015 37.2903C99.4648 37.998 97.6449 38.3519 95.5553 38.3519Z" fill="#07BCF0"/>
<path d="M109.352 48.9177C108.61 48.9177 107.886 48.8503 107.178 48.7155C106.47 48.6143 105.83 48.429 105.257 48.1594V42.5984C105.695 42.6995 106.217 42.8006 106.824 42.9017C107.464 43.0029 108.054 43.0534 108.594 43.0534C110.11 43.0534 111.205 42.6995 111.88 41.9918C112.587 41.284 113.211 40.3572 113.75 39.2113L115.57 34.9648L115.469 40.5257L103.488 10.2439H110.616L119.008 32.5887H116.48L124.821 10.2439H132L120.019 40.5257C119.311 42.312 118.452 43.8286 117.44 45.0756C116.429 46.3226 115.25 47.2662 113.902 47.9066C112.587 48.5806 111.071 48.9177 109.352 48.9177Z" fill="#07BCF0"/>
<path d="M72.2548 17.9871L73.2877 10.1465H71.2218L72.2548 17.9871Z" fill="#07BCF0"/>
<path d="M76.5453 7.06067L71.2375 10.1659L73.255 10.1659L76.5453 7.06067Z" fill="#07BCF0"/>
</svg>
