<svg width="132" height="49" viewBox="0 0 132 49" fill="none" xmlns="http://www.w3.org/2000/svg">
<path d="M9.75692 37.6627V6.06648H0V0H26.2881V6.06648H16.6828V37.6627H9.75692Z" fill="#07BCF0"/>
<path d="M22.3662 37.6627V10.1614H28.5843V16.2784L28.0788 15.3684C28.7191 13.3126 29.7134 11.8802 31.0615 11.0713C32.4433 10.2625 34.0947 9.85803 36.0158 9.85803H37.6335V15.7223H35.2575C33.3701 15.7223 31.8535 16.3121 30.7076 17.4917C29.5617 18.6376 28.9888 20.2553 28.9888 22.3449V37.6627H22.3662Z" fill="#07BCF0"/>
<path d="M45.0661 38.2694C43.1451 38.2694 41.4768 37.9492 40.0613 37.3088C38.6458 36.6685 37.5504 35.7585 36.7753 34.5789C36.0001 33.3656 35.6125 31.967 35.6125 30.3829C35.6125 28.8663 35.9495 27.5182 36.6236 26.3386C37.2976 25.1253 38.3424 24.1143 39.7579 23.3054C41.1735 22.4965 42.9597 21.9236 45.1167 21.5866L54.1153 20.1205V25.1759L46.3805 26.4903C45.0661 26.7262 44.0887 27.1475 43.4484 27.7541C42.808 28.3608 42.4879 29.1528 42.4879 30.1302C42.4879 31.0739 42.8417 31.8322 43.5495 32.4051C44.291 32.9444 45.2009 33.214 46.2794 33.214C47.6612 33.214 48.8745 32.9275 49.9193 32.3546C50.9978 31.7479 51.8235 30.9222 52.3964 29.8774C53.0031 28.8326 53.3064 27.6867 53.3064 26.4397V19.3622C53.3064 18.1826 52.8346 17.2052 51.8909 16.43C50.9809 15.6212 49.7676 15.2168 48.251 15.2168C46.8355 15.2168 45.5717 15.6043 44.4595 16.3795C43.381 17.121 42.589 18.1152 42.0834 19.3622L36.6742 16.7334C37.2134 15.2842 38.056 14.0372 39.2019 12.9924C40.3814 11.9139 41.7633 11.0713 43.3473 10.4647C44.9313 9.85803 46.6501 9.5547 48.5038 9.5547C50.7619 9.5547 52.7503 9.97599 54.4692 10.8186C56.188 11.6274 57.5192 12.7733 58.4629 14.2562C59.4403 15.7054 59.929 17.4074 59.929 19.3622V37.6627H53.6603V32.9612L55.0758 32.8601C54.368 34.0397 53.5255 35.0339 52.5481 35.8428C51.5707 36.6179 50.4585 37.2246 49.2115 37.6627C47.9645 38.0672 46.5827 38.2694 45.0661 38.2694Z" fill="#07BCF0"/>
<path d="M69.2973 37.6627L63.888 23.912L58.4787 10.1614H65.7079L73.5438 31.7985H70.8644L78.7509 10.1614H85.9801L75.1615 37.6627H69.2973Z" fill="#07BCF0"/>
<path d="M95.5553 38.2694C92.6232 38.2694 90.0618 37.5785 87.8711 36.1967C85.7141 34.7811 84.2312 32.8769 83.4224 30.4841L88.3767 28.108C89.0844 29.6583 90.0618 30.8716 91.3088 31.7479C92.5895 32.6242 94.005 33.0623 95.5553 33.0623C96.7686 33.0623 97.7291 32.7927 98.4369 32.2534C99.1447 31.7142 99.4985 31.0064 99.4985 30.1302C99.4985 29.5909 99.3469 29.1528 99.0435 28.8158C98.7739 28.445 98.3863 28.1417 97.8808 27.9058C97.409 27.6362 96.8866 27.4171 96.3136 27.2486L91.8143 25.9848C89.4888 25.3107 87.7195 24.2828 86.5062 22.901C85.3266 21.5191 84.7368 19.8846 84.7368 17.9972C84.7368 16.3121 85.1581 14.846 86.0006 13.599C86.8769 12.3183 88.0733 11.3241 89.59 10.6163C91.1403 9.90858 92.9097 9.5547 94.8981 9.5547C97.4932 9.5547 99.785 10.1782 101.773 11.4252C103.762 12.6722 105.177 14.4247 106.02 16.6828L100.965 19.0589C100.493 17.8119 99.7008 16.8176 98.5886 16.0762C97.4764 15.3347 96.2294 14.964 94.8476 14.964C93.7354 14.964 92.8591 15.2168 92.2188 15.7223C91.5784 16.2278 91.2582 16.885 91.2582 17.6939C91.2582 18.1994 91.393 18.6376 91.6627 19.0083C91.9323 19.379 92.303 19.6824 92.7749 19.9183C93.2804 20.1542 93.8533 20.3733 94.4937 20.5755L98.8919 21.8899C101.15 22.5639 102.886 23.575 104.099 24.9231C105.346 26.2712 105.969 27.9227 105.969 29.8774C105.969 31.5288 105.531 32.9949 104.655 34.2756C103.779 35.5226 102.565 36.5 101.015 37.2077C99.4648 37.9155 97.6449 38.2694 95.5553 38.2694Z" fill="#07BCF0"/>
<path d="M109.352 48.8352C108.61 48.8352 107.886 48.7677 107.178 48.6329C106.47 48.5318 105.83 48.3465 105.257 48.0768V42.5159C105.695 42.617 106.217 42.7181 106.824 42.8192C107.464 42.9203 108.054 42.9709 108.594 42.9709C110.11 42.9709 111.205 42.617 111.88 41.9093C112.587 41.2015 113.211 40.2747 113.75 39.1288L115.57 34.8823L115.469 40.4432L103.488 10.1614H110.616L119.008 32.5062H116.48L124.821 10.1614H132L120.019 40.4432C119.311 42.2294 118.452 43.7461 117.44 44.993C116.429 46.24 115.25 47.1837 113.902 47.8241C112.587 48.4981 111.071 48.8352 109.352 48.8352Z" fill="#07BCF0"/>
<path d="M72.2548 17.9046L73.2877 10.064H71.2218L72.2548 17.9046Z" fill="#07BCF0"/>
<path d="M76.5453 6.97815L71.2375 10.0834L73.255 10.0834L76.5453 6.97815Z" fill="#07BCF0"/>
</svg>
