<svg width="126" height="47" viewBox="0 0 126 47" fill="none" xmlns="http://www.w3.org/2000/svg">
<path d="M9.31341 35.9507V5.79072H0V0H25.0931V5.79072H15.9245V35.9507H9.31341Z" fill="white"/>
<path d="M21.3495 35.9507V9.69946H27.285V15.5384L26.8024 14.6698C27.4137 12.7074 28.3627 11.3402 29.6495 10.5681C30.9685 9.79597 32.5449 9.40992 34.3786 9.40992H35.9228V15.0076H33.6548C31.8532 15.0076 30.4056 15.5706 29.3118 16.6966C28.218 17.7904 27.6711 19.3346 27.6711 21.3292V35.9507H21.3495Z" fill="white"/>
<path d="M43.0176 36.5298C41.1839 36.5298 39.5914 36.2242 38.2402 35.6129C36.8891 35.0017 35.8435 34.1331 35.1036 33.0071C34.3637 31.849 33.9937 30.5139 33.9937 29.0019C33.9937 27.5542 34.3154 26.2674 34.9588 25.1414C35.6023 23.9832 36.5995 23.0181 37.9507 22.246C39.3019 21.4739 41.0069 20.927 43.0658 20.6053L51.6554 19.2059V24.0315L44.2723 25.2862C43.0176 25.5113 42.0846 25.9135 41.4734 26.4926C40.8622 27.0716 40.5565 27.8276 40.5565 28.7606C40.5565 29.6614 40.8943 30.3852 41.5699 30.9321C42.2777 31.4468 43.1463 31.7042 44.1757 31.7042C45.4947 31.7042 46.6529 31.4308 47.6502 30.8838C48.6796 30.3048 49.4678 29.5166 50.0147 28.5193C50.5938 27.522 50.8833 26.4282 50.8833 25.2379V18.4821C50.8833 17.3561 50.4329 16.4231 49.5322 15.6832C48.6636 14.9111 47.5054 14.5251 46.0577 14.5251C44.7066 14.5251 43.5002 14.895 42.4385 15.6349C41.4091 16.3427 40.653 17.2917 40.1705 18.4821L35.0071 15.9727C35.5218 14.5894 36.3261 13.3991 37.4199 12.4018C38.5459 11.3723 39.8649 10.5681 41.3769 9.98899C42.8889 9.40992 44.5296 9.12039 46.299 9.12039C48.4544 9.12039 50.3525 9.52252 51.9932 10.3268C53.6339 11.0989 54.9047 12.1927 55.8054 13.6082C56.7384 14.9915 57.2049 16.6162 57.2049 18.4821V35.9507H51.2211V31.4629L52.5723 31.3664C51.8967 32.4924 51.0924 33.4414 50.1595 34.2135C49.2265 34.9534 48.1649 35.5325 46.9746 35.9507C45.7843 36.3368 44.4653 36.5298 43.0176 36.5298Z" fill="white"/>
<path d="M66.1473 35.9507L60.9839 22.8251L55.8205 9.69946H62.7211L70.2008 30.353H67.6432L75.1712 9.69946H82.0718L71.745 35.9507H66.1473Z" fill="white"/>
<path d="M91.2118 36.5298C88.4129 36.5298 85.968 35.8703 83.8769 34.5513C81.8179 33.2001 80.4024 31.3825 79.6303 29.0984L84.3594 26.8303C85.035 28.3102 85.968 29.4683 87.1583 30.3048C88.3808 31.1412 89.7319 31.5594 91.2118 31.5594C92.3699 31.5594 93.2868 31.3021 93.9624 30.7873C94.6379 30.2726 94.9757 29.597 94.9757 28.7606C94.9757 28.2459 94.831 27.8276 94.5414 27.5059C94.2841 27.1521 93.9141 26.8625 93.4315 26.6373C92.9812 26.38 92.4825 26.1708 91.9356 26.01L87.6408 24.8036C85.421 24.1602 83.7321 23.179 82.574 21.86C81.448 20.541 80.885 18.9807 80.885 17.1791C80.885 15.5706 81.2871 14.1712 82.0914 12.9809C82.9278 11.7584 84.0699 10.8093 85.5176 10.1338C86.9974 9.45818 88.6864 9.12039 90.5844 9.12039C93.0616 9.12039 95.2492 9.71554 97.1473 10.9059C99.0453 12.0962 100.397 13.769 101.201 15.9245L96.3752 18.1925C95.9248 17.0022 95.1688 16.0532 94.1071 15.3454C93.0455 14.6377 91.8552 14.2838 90.5362 14.2838C89.4746 14.2838 88.6381 14.5251 88.0269 15.0076C87.4156 15.4902 87.11 16.1175 87.11 16.8896C87.11 17.3722 87.2387 17.7904 87.4961 18.1443C87.7534 18.4981 88.1073 18.7877 88.5577 19.0129C89.0403 19.2381 89.5872 19.4472 90.1984 19.6402L94.3967 20.8949C96.5521 21.5383 98.2089 22.5034 99.367 23.7902C100.557 25.077 101.153 26.6534 101.153 28.5193C101.153 30.0957 100.734 31.4951 99.8979 32.7176C99.0614 33.9079 97.9033 34.8408 96.4234 35.5164C94.9436 36.192 93.2064 36.5298 91.2118 36.5298Z" fill="white"/>
<path d="M104.381 46.6153C103.673 46.6153 102.982 46.551 102.306 46.4223C101.631 46.3258 101.019 46.1488 100.472 45.8915V40.5833C100.891 40.6798 101.389 40.7763 101.968 40.8728C102.58 40.9694 103.143 41.0176 103.657 41.0176C105.105 41.0176 106.151 40.6798 106.794 40.0042C107.47 39.3286 108.065 38.444 108.579 37.3502L110.317 33.2966L110.22 38.6048L98.7834 9.69946H105.588L113.598 31.0286H111.185L119.147 9.69946H126L114.563 38.6048C113.888 40.3099 113.067 41.7575 112.102 42.9479C111.137 44.1382 110.011 45.0389 108.724 45.6502C107.47 46.2936 106.022 46.6153 104.381 46.6153Z" fill="white"/>
<path d="M68.9704 17.0907L69.9564 9.60656H67.9844L68.9704 17.0907Z" fill="white"/>
<path d="M73.0659 6.66095L67.9993 9.62506L69.9251 9.62507L73.0659 6.66095Z" fill="white"/>
</svg>
