<svg width="20" height="20" viewBox="0 0 20 20" fill="none" xmlns="http://www.w3.org/2000/svg">
<path fill-rule="evenodd" clip-rule="evenodd" d="M5.29279 7.293C5.48031 7.10553 5.73462 7.00021 5.99979 7.00021C6.26495 7.00021 6.51926 7.10553 6.70679 7.293L9.99979 10.586L13.2928 7.293C13.385 7.19749 13.4954 7.1213 13.6174 7.0689C13.7394 7.01649 13.8706 6.9889 14.0034 6.98775C14.1362 6.98659 14.2678 7.01189 14.3907 7.06218C14.5136 7.11246 14.6253 7.18671 14.7192 7.2806C14.8131 7.37449 14.8873 7.48615 14.9376 7.60904C14.9879 7.73194 15.0132 7.86362 15.012 7.9964C15.0109 8.12918 14.9833 8.2604 14.9309 8.3824C14.8785 8.50441 14.8023 8.61475 14.7068 8.707L10.7068 12.707C10.5193 12.8945 10.265 12.9998 9.99979 12.9998C9.73462 12.9998 9.48031 12.8945 9.29279 12.707L5.29279 8.707C5.10532 8.51947 5 8.26516 5 8C5 7.73483 5.10532 7.48053 5.29279 7.293Z" fill="#0079A6"/>
</svg>
